<svg xmlns="http://www.w3.org/2000/svg" xmlns:xlink="http://www.w3.org/1999/xlink" width="23" height="14" viewBox="0 0 23 14">
    <defs>
        <path id="prefix__a" d="M0 0L8.414 0 8.414 14 0 14z"/>
    </defs>
    <g fill="none" fill-rule="evenodd">
        <path fill="#FFF" d="M19 8H1c-.553 0-1-.448-1-1s.447-1 1-1h18c.553 0 1 .448 1 1s-.447 1-1 1" transform="matrix(-1 0 0 1 22.167 0)"/>
        <g transform="matrix(-1 0 0 1 22.167 0) translate(12)">
            <mask id="prefix__b" fill="#fff">
                <use xlink:href="#prefix__a"/>
            </mask>
            <path fill="#FFF" d="M1 14c-.256 0-.512-.098-.707-.293-.391-.391-.391-1.023 0-1.414L5.586 7 .293 1.707C-.098 1.316-.098.684.293.293s1.023-.391 1.414 0L8.414 7l-6.707 6.707C1.512 13.902 1.256 14 1 14" mask="url(#prefix__b)"/>
        </g>
    </g>
</svg>
