<?xml version="1.0" standalone="no"?>
<!DOCTYPE svg PUBLIC "-//W3C//DTD SVG 20010904//EN"
 "http://www.w3.org/TR/2001/REC-SVG-20010904/DTD/svg10.dtd">
<svg version="1.0" xmlns="http://www.w3.org/2000/svg"
 width="512 " height="512 " viewBox="0 0 512  512 "
 preserveAspectRatio="xMidYMid meet">

<g transform="translate(0 ,512 ) scale(0.100000,-0.100000)"
fill="#000000" stroke="none">
<path d="M4540 5110 c-19 -5 -996 -237 -2170 -515 -1174 -279 -2156 -516
-2182 -527 -57 -24 -132 -101 -161 -166 -39 -88 -32 -142 81 -584 l102 -397 0
-1223 c0 -1342 -2 -1285 61 -1409 39 -77 144 -184 225 -226 125 -67 -13 -63
2160 -63 1363 0 1989 3 2030 11 147 27 303 144 372 279 64 128 62 73 62 1508
0 1406 2 1353 -52 1384 -19 11 -364 14 -1903 18 l-1880 5 300 68 c165 38 406
93 535 122 1865 422 2900 658 2922 666 47 19 73 56 71 102 -2 62 -180 723
-211 785 -31 64 -77 106 -152 141 -60 27 -149 36 -210 21z m113 -211 c20 -5
44 -21 53 -34 14 -22 177 -615 170 -622 -1 -1 -101 -25 -221 -53 l-220 -50
-292 292 c-161 161 -289 294 -284 296 8 3 738 178 751 181 3 0 22 -4 43 -10z
m-755 -522 l293 -293 -388 -87 c-214 -48 -395 -88 -403 -87 -14 0 -591 569
-580 571 3 0 178 43 390 94 212 51 387 94 390 94 3 1 137 -131 298 -292z
m-1038 -242 c156 -156 282 -286 280 -288 -3 -2 -182 -43 -398 -92 l-393 -89
-285 285 -285 285 383 91 c211 50 390 92 398 92 8 1 143 -127 300 -284z
m-1041 -239 c227 -227 280 -285 265 -289 -11 -4 -190 -45 -398 -92 l-380 -86
-277 277 c-153 153 -276 280 -274 283 4 3 649 161 775 190 3 0 133 -127 289
-283z m-1035 -245 l278 -278 -78 -18 c-44 -9 -202 -45 -352 -80 -150 -34 -275
-59 -277 -55 -11 18 -135 534 -135 562 0 38 20 72 53 90 21 11 186 55 217 57
8 1 141 -124 294 -278z m206 -671 c0 -6 -70 -150 -155 -320 l-155 -310 -130 0
-130 0 0 320 0 320 285 0 c185 0 285 -4 285 -10z m1070 5 c0 -3 -71 -147 -157
-320 l-158 -315 -412 0 c-227 0 -413 2 -413 5 0 8 301 609 312 623 8 9 104 12
419 12 225 0 409 -2 409 -5z m910 -315 l-160 -320 -410 0 c-226 0 -410 2 -410
5 0 3 71 147 157 320 l158 315 412 0 413 0 -160 -320z m1070 0 l-160 -320
-415 0 -415 0 160 320 160 320 415 0 415 0 -160 -320z m860 0 l0 -320 -390 0
-390 0 160 320 160 320 230 0 230 0 0 -320z m0 -1370 c0 -813 0 -830 -21 -884
-23 -63 -87 -134 -146 -165 -22 -11 -69 -25 -104 -31 -45 -8 -636 -10 -2009
-8 l-1945 3 -67 33 c-76 37 -120 82 -157 162 l-26 55 -3 833 -3 832 2241 0
2240 0 0 -830z"/>
</g>
</svg>
